<svg viewBox="0 0 329.98907470703125 200" xmlns="http://www.w3.org/2000/svg"><g><g><g><g><g><line x1="50" y1="178" x2="45" y2="178" style="visibility: inherit;" fill="rgb(0, 0, 0)" stroke="rgb(204, 204, 204)" stroke-width="1px"></line><line x1="50" y1="165.28571428571428" x2="45" y2="165.28571428571428" style="visibility: inherit;" fill="rgb(0, 0, 0)" stroke="rgb(204, 204, 204)" stroke-width="1px"></line><line x1="50" y1="152.57142857142856" x2="45" y2="152.57142857142856" style="visibility: inherit;" fill="rgb(0, 0, 0)" stroke="rgb(204, 204, 204)" stroke-width="1px"></line><line x1="50" y1="139.85714285714286" x2="45" y2="139.85714285714286" style="visibility: inherit;" fill="rgb(0, 0, 0)" stroke="rgb(204, 204, 204)" stroke-width="1px"></line><line x1="50" y1="127.14285714285712" x2="45" y2="127.14285714285712" style="visibility: inherit;" fill="rgb(0, 0, 0)" stroke="rgb(204, 204, 204)" stroke-width="1px"></line><line x1="50" y1="114.42857142857142" x2="45" y2="114.42857142857142" style="visibility: inherit;" fill="rgb(0, 0, 0)" stroke="rgb(204, 204, 204)" stroke-width="1px"></line><line x1="50" y1="101.71428571428571" x2="45" y2="101.71428571428571" style="visibility: inherit;" fill="rgb(0, 0, 0)" stroke="rgb(204, 204, 204)" stroke-width="1px"></line><line x1="50" y1="89" x2="45" y2="89" style="visibility: inherit;" fill="rgb(0, 0, 0)" stroke="rgb(204, 204, 204)" stroke-width="1px"></line><line x1="50" y1="76.28571428571428" x2="45" y2="76.28571428571428" style="visibility: inherit;" fill="rgb(0, 0, 0)" stroke="rgb(204, 204, 204)" stroke-width="1px"></line><line x1="50" y1="63.571428571428584" x2="45" y2="63.571428571428584" style="visibility: inherit;" fill="rgb(0, 0, 0)" stroke="rgb(204, 204, 204)" stroke-width="1px"></line><line x1="50" y1="50.857142857142854" x2="45" y2="50.857142857142854" style="visibility: inherit;" fill="rgb(0, 0, 0)" stroke="rgb(204, 204, 204)" stroke-width="1px"></line><line x1="50" y1="38.142857142857125" x2="45" y2="38.142857142857125" style="visibility: inherit;" fill="rgb(0, 0, 0)" stroke="rgb(204, 204, 204)" stroke-width="1px"></line><line x1="50" y1="25.428571428571416" x2="45" y2="25.428571428571416" style="visibility: inherit;" fill="rgb(0, 0, 0)" stroke="rgb(204, 204, 204)" stroke-width="1px"></line><line x1="50" y1="12.714285714285689" x2="45" y2="12.714285714285689" style="visibility: inherit;" fill="rgb(0, 0, 0)" stroke="rgb(204, 204, 204)" stroke-width="1px"></line><line x1="50" y1="0" x2="45" y2="0" style="visibility: inherit;" fill="rgb(0, 0, 0)" stroke="rgb(204, 204, 204)" stroke-width="1px"></line></g><g transform="translate(40, 0)"><text x="0" y="178" dx="0em" dy="0.3em" style="text-anchor: end; visibility: hidden; font-family: Roboto, sans-serif; font-size: 12px; font-weight: 200;" fill="rgb(50, 49, 63)" stroke="none" stroke-width="1px">-0.2</text><text x="0" y="165.28571428571428" dx="0em" dy="0.3em" style="text-anchor: end; visibility: inherit; font-family: Roboto, sans-serif; font-size: 12px; font-weight: 200;" fill="rgb(50, 49, 63)" stroke="none" stroke-width="1px">-0.1</text><text x="0" y="152.57142857142856" dx="0em" dy="0.3em" style="text-anchor: end; visibility: hidden; font-family: Roboto, sans-serif; font-size: 12px; font-weight: 200;" fill="rgb(50, 49, 63)" stroke="none" stroke-width="1px">0</text><text x="0" y="139.85714285714286" dx="0em" dy="0.3em" style="text-anchor: end; visibility: inherit; font-family: Roboto, sans-serif; font-size: 12px; font-weight: 200;" fill="rgb(50, 49, 63)" stroke="none" stroke-width="1px">0.1</text><text x="0" y="127.14285714285712" dx="0em" dy="0.3em" style="text-anchor: end; visibility: hidden; font-family: Roboto, sans-serif; font-size: 12px; font-weight: 200;" fill="rgb(50, 49, 63)" stroke="none" stroke-width="1px">0.2</text><text x="0" y="114.42857142857142" dx="0em" dy="0.3em" style="text-anchor: end; visibility: inherit; font-family: Roboto, sans-serif; font-size: 12px; font-weight: 200;" fill="rgb(50, 49, 63)" stroke="none" stroke-width="1px">0.3</text><text x="0" y="101.71428571428571" dx="0em" dy="0.3em" style="text-anchor: end; visibility: hidden; font-family: Roboto, sans-serif; font-size: 12px; font-weight: 200;" fill="rgb(50, 49, 63)" stroke="none" stroke-width="1px">0.4</text><text x="0" y="89" dx="0em" dy="0.3em" style="text-anchor: end; visibility: inherit; font-family: Roboto, sans-serif; font-size: 12px; font-weight: 200;" fill="rgb(50, 49, 63)" stroke="none" stroke-width="1px">0.5</text><text x="0" y="76.28571428571428" dx="0em" dy="0.3em" style="text-anchor: end; visibility: hidden; font-family: Roboto, sans-serif; font-size: 12px; font-weight: 200;" fill="rgb(50, 49, 63)" stroke="none" stroke-width="1px">0.6</text><text x="0" y="63.571428571428584" dx="0em" dy="0.3em" style="text-anchor: end; visibility: inherit; font-family: Roboto, sans-serif; font-size: 12px; font-weight: 200;" fill="rgb(50, 49, 63)" stroke="none" stroke-width="1px">0.7</text><text x="0" y="50.857142857142854" dx="0em" dy="0.3em" style="text-anchor: end; visibility: hidden; font-family: Roboto, sans-serif; font-size: 12px; font-weight: 200;" fill="rgb(50, 49, 63)" stroke="none" stroke-width="1px">0.8</text><text x="0" y="38.142857142857125" dx="0em" dy="0.3em" style="text-anchor: end; visibility: inherit; font-family: Roboto, sans-serif; font-size: 12px; font-weight: 200;" fill="rgb(50, 49, 63)" stroke="none" stroke-width="1px">0.9</text><text x="0" y="25.428571428571416" dx="0em" dy="0.3em" style="text-anchor: end; visibility: hidden; font-family: Roboto, sans-serif; font-size: 12px; font-weight: 200;" fill="rgb(50, 49, 63)" stroke="none" stroke-width="1px">1</text><text x="0" y="12.714285714285689" dx="0em" dy="0.3em" style="text-anchor: end; visibility: inherit; font-family: Roboto, sans-serif; font-size: 12px; font-weight: 200;" fill="rgb(50, 49, 63)" stroke="none" stroke-width="1px">1.1</text><text x="0" y="0" dx="0em" dy="0.3em" style="text-anchor: end; visibility: hidden; font-family: Roboto, sans-serif; font-size: 12px; font-weight: 200;" fill="rgb(50, 49, 63)" stroke="none" stroke-width="1px">1.2</text></g><line x1="50" y1="0" x2="50" y2="178" fill="rgb(0, 0, 0)" stroke="rgb(204, 204, 204)" stroke-width="1px"></line></g></g><g transform="translate(50, 0)" clip-path="url(#clip_0)"><clipPath id="clip_0"><rect width="279" height="177"></rect></clipPath><g><g><g><line x1="0" y1="0" x2="0" y2="178" fill="rgb(0, 0, 0)" stroke="rgb(60, 60, 60)" stroke-width="1px" opacity="0.25"></line><line x1="31.109888888888886" y1="0" x2="31.109888888888886" y2="178" fill="rgb(0, 0, 0)" stroke="rgb(60, 60, 60)" stroke-width="1px" opacity="0.25"></line><line x1="62.21977777777777" y1="0" x2="62.21977777777777" y2="178" fill="rgb(0, 0, 0)" stroke="rgb(60, 60, 60)" stroke-width="1px" opacity="0.25"></line><line x1="93.32966666666665" y1="0" x2="93.32966666666665" y2="178" fill="rgb(0, 0, 0)" stroke="rgb(60, 60, 60)" stroke-width="1px" opacity="0.25"></line><line x1="124.43955555555554" y1="0" x2="124.43955555555554" y2="178" fill="rgb(0, 0, 0)" stroke="rgb(60, 60, 60)" stroke-width="1px" opacity="0.25"></line><line x1="155.54944444444445" y1="0" x2="155.54944444444445" y2="178" fill="rgb(0, 0, 0)" stroke="rgb(60, 60, 60)" stroke-width="1px" opacity="0.25"></line><line x1="186.6593333333333" y1="0" x2="186.6593333333333" y2="178" fill="rgb(0, 0, 0)" stroke="rgb(60, 60, 60)" stroke-width="1px" opacity="0.25"></line><line x1="217.7692222222222" y1="0" x2="217.7692222222222" y2="178" fill="rgb(0, 0, 0)" stroke="rgb(60, 60, 60)" stroke-width="1px" opacity="0.25"></line><line x1="248.8791111111111" y1="0" x2="248.8791111111111" y2="178" fill="rgb(0, 0, 0)" stroke="rgb(60, 60, 60)" stroke-width="1px" opacity="0.25"></line><line x1="279.989" y1="0" x2="279.989" y2="178" fill="rgb(0, 0, 0)" stroke="rgb(60, 60, 60)" stroke-width="1px" opacity="0.25"></line></g><g><line x1="0" y1="178" x2="279.989" y2="178" fill="rgb(0, 0, 0)" stroke="rgb(60, 60, 60)" stroke-width="1px" opacity="0.25"></line><line x1="0" y1="165.28571428571428" x2="279.989" y2="165.28571428571428" fill="rgb(0, 0, 0)" stroke="rgb(60, 60, 60)" stroke-width="1px" opacity="0.25"></line><line x1="0" y1="152.57142857142856" x2="279.989" y2="152.57142857142856" fill="rgb(0, 0, 0)" stroke="rgb(60, 60, 60)" stroke-width="1px" opacity="0.25"></line><line x1="0" y1="139.85714285714286" x2="279.989" y2="139.85714285714286" fill="rgb(0, 0, 0)" stroke="rgb(60, 60, 60)" stroke-width="1px" opacity="0.25"></line><line x1="0" y1="127.14285714285712" x2="279.989" y2="127.14285714285712" fill="rgb(0, 0, 0)" stroke="rgb(60, 60, 60)" stroke-width="1px" opacity="0.25"></line><line x1="0" y1="114.42857142857142" x2="279.989" y2="114.42857142857142" fill="rgb(0, 0, 0)" stroke="rgb(60, 60, 60)" stroke-width="1px" opacity="0.25"></line><line x1="0" y1="101.71428571428571" x2="279.989" y2="101.71428571428571" fill="rgb(0, 0, 0)" stroke="rgb(60, 60, 60)" stroke-width="1px" opacity="0.25"></line><line x1="0" y1="89" x2="279.989" y2="89" fill="rgb(0, 0, 0)" stroke="rgb(60, 60, 60)" stroke-width="1px" opacity="0.25"></line><line x1="0" y1="76.28571428571428" x2="279.989" y2="76.28571428571428" fill="rgb(0, 0, 0)" stroke="rgb(60, 60, 60)" stroke-width="1px" opacity="0.25"></line><line x1="0" y1="63.571428571428584" x2="279.989" y2="63.571428571428584" fill="rgb(0, 0, 0)" stroke="rgb(60, 60, 60)" stroke-width="1px" opacity="0.25"></line><line x1="0" y1="50.857142857142854" x2="279.989" y2="50.857142857142854" fill="rgb(0, 0, 0)" stroke="rgb(60, 60, 60)" stroke-width="1px" opacity="0.25"></line><line x1="0" y1="38.142857142857125" x2="279.989" y2="38.142857142857125" fill="rgb(0, 0, 0)" stroke="rgb(60, 60, 60)" stroke-width="1px" opacity="0.25"></line><line x1="0" y1="25.428571428571416" x2="279.989" y2="25.428571428571416" fill="rgb(0, 0, 0)" stroke="rgb(60, 60, 60)" stroke-width="1px" opacity="0.25"></line><line x1="0" y1="12.714285714285689" x2="279.989" y2="12.714285714285689" fill="rgb(0, 0, 0)" stroke="rgb(60, 60, 60)" stroke-width="1px" opacity="0.25"></line><line x1="0" y1="0" x2="279.989" y2="0" fill="rgb(0, 0, 0)" stroke="rgb(60, 60, 60)" stroke-width="1px" opacity="0.25"></line></g></g></g><g><g><line x1="0" y1="152.57142857142856" x2="279.989" y2="152.57142857142856" fill="rgb(0, 0, 0)" stroke="rgb(153, 153, 153)" stroke-width="1.5px"></line></g></g><g><g><line x1="31.109888888888886" y1="0" x2="31.109888888888886" y2="178" fill="rgb(0, 0, 0)" stroke="rgb(153, 153, 153)" stroke-width="1.5px"></line></g></g><g><g><g><g><g><path stroke="rgb(238, 51, 119)" stroke-width="2px" d="M32.66538333333333,-20.947880506515503L34.22087777777777,8.100841837269906L35.776372222222214,21.96084028291283L37.33186666666666,29.32160198331627L38.88736111111111,35.847735629264164L40.442855555555546,40.088479824360725L41.998349999999995,43.428598901848304L43.553844444444444,48.48222017508124L45.109338888888885,51.47122863251043L46.66483333333333,54.892323477747695L48.220327777777776,58.97752168348008L49.77582222222222,62.539591697632936L51.33131666666666,64.95244357533025L52.88681111111111,67.81279572878486L54.44230555555555,71.5525436212777L55.9978,73.34583128988463L57.55329444444444,75.46716302194487L59.10878888888888,77.55623199893469L60.66428333333333,80.34305251935525L62.21977777777777,81.33077204560159L63.77527222222221,83.16468267878503L65.33076666666666,84.5250153408102L66.88626111111111,85.27089141123791L68.44175555555555,86.77344563141524L69.99725,88.15183524745349L71.55274444444443,89.36165340190024L73.10823888888889,90.85503051889118L74.66373333333333,91.85589717567451L76.21922777777776,92.52068840337652L77.77472222222222,94.29977569751661L79.33021666666666,94.79602362914909L80.88571111111109,96.04614708446891L82.44120555555556,95.98398137422781L83.99669999999999,96.61640859638506L85.55219444444444,97.14116072787397L87.10768888888889,98.33819944469842L88.66318333333332,98.47360555158775L90.21867777777777,99.4363303550527L91.77417222222222,99.65779551639781L93.32966666666665,100.93555640785041L94.8851611111111,101.47792543153069L96.44065555555555,101.9541945189492L97.99614999999999,102.40509178065471L99.55164444444443,102.38013990671074L101.10713888888888,102.85145344709669L102.66263333333332,103.04188173893617L104.21812777777777,103.63947390250728L105.77362222222222,104.60904973162252L107.32911666666666,105.11648388751857L108.8846111111111,105.53116779356644L110.44010555555555,106.03264185173933L111.9956,105.87194386438372L113.55109444444443,105.82759560449703L115.10658888888888,105.7571840466145L116.66208333333333,106.3753894096411L118.21757777777776,106.76637543167892L119.77307222222221,106.63923485149957L121.32856666666666,107.22373776222143L122.8840611111111,107.71351201201692L124.43955555555554,108.69668704446431L125.99504999999999,109.17185956004171L127.55054444444443,109.258738865461L129.1060388888889,108.91126698170747L130.66153333333332,109.50052168829316L132.21702777777776,108.90800499919614L133.77252222222222,108.73638103691584L135.32801666666666,110.00746396951585L136.8835111111111,110.79113897801209L138.43900555555555,110.60608585548859L139.9945,111.02051090436936L141.54999444444442,110.93620856375723L143.10548888888886,110.66471047946266L144.66098333333335,110.91801970876894L146.21647777777778,111.18340245293165L147.77197222222222,111.59170218182128L149.32746666666665,111.26131589677306L150.8829611111111,111.52238699390597L152.43845555555552,112.4891170945838L153.99395,112.61660607209822L155.54944444444445,112.91098784792179L157.10493888888888,113.01420739013322L158.66043333333332,113.0892207852675L160.21592777777775,113.56201200503718L161.77142222222218,113.57696156308504L163.32691666666668,114.06612603684677L164.8824111111111,114.13939766691658L166.43790555555555,113.73586780705257L167.99339999999998,113.56014493546097L169.54889444444441,114.21772525658646L171.10438888888888,114.44633737091769L172.65988333333334,114.27732748320429L174.21537777777777,114.40742512235906L175.7708722222222,114.6869089857417L177.32636666666664,114.81783391569124L178.88186111111108,114.65388463457862L180.43735555555554,114.9461963837854L181.99285,114.99148515853356L183.54834444444444,115.61847821980842L185.10383888888887,115.84758673801669L186.6593333333333,115.512590012263L188.21482777777777,115.71735260564728L189.7703222222222,116.02672133765094L191.32581666666667,116.08700196185308L192.8813111111111,116.45876798771977L194.43680555555554,116.78512596079462L195.99229999999997,116.84901458273721L197.54779444444443,117.50819886390886L199.10328888888887,117.48919737735106L200.65878333333333,117.31757141759648L202.21427777777777,117.76213291310803L203.7697722222222,117.92111995659961L205.32526666666664,118.10479034006497L206.8807611111111,118.23576470369893L208.43625555555553,117.72045575983488L209.99174999999997,117.89033596502897L211.54724444444443,118.00918644284357L213.10273888888887,118.4610291815707L214.65823333333333,118.51789160011805" style="fill: none;" fill="none"></path></g><g><path stroke="rgb(0, 153, 136)" stroke-width="2px" d="M188.21482777777777,116.4378551329885L189.7703222222222,116.63643987476826L191.32581666666667,116.73667503897718L192.8813111111111,116.83454533055925L194.43680555555554,116.9831926310879L195.99229999999997,117.35622276310535L197.54779444444443,117.14011531821588L199.10328888888887,117.39535278072037L200.65878333333333,117.02899273264991L202.21427777777777,116.59745303537794L203.7697722222222,117.16764189003479L205.32526666666664,117.54213427973038L206.8807611111111,118.3116055875206L208.43625555555553,118.20872700723001L209.99174999999997,118.23763359397158L211.54724444444443,118.60778087217524L213.10273888888887,118.49338542434234L214.65823333333333,118.3826102841386L216.21372777777776,118.53535913164222L217.7692222222222,118.3938064857383L219.32471666666663,119.33287212925944L220.8802111111111,119.02032115495119L222.43570555555553,118.69662363092894L223.9912,119.28003393741605L225.54669444444443,118.86841259647774L227.10218888888886,119.35489135326527L228.6576833333333,119.14156532030003L230.21317777777776,119.5422160379651L231.7686722222222,119.6603803343527L233.32416666666666,120.52453584487749L234.8796611111111,120.05573416444193L236.43515555555553,119.84913133343387L237.99064999999996,120.1631320280105L239.54614444444442,120.03501997764467L241.10163888888889,120.15935977794375L242.65713333333332,120.23818174127027L244.21262777777775,120.68962970728883L245.7681222222222,120.75083558708717L247.32361666666662,121.13410287044287L248.8791111111111,121.46650676481616L250.43460555555555,121.00597347824493L251.99009999999998,121.16847070127967L253.54559444444442,120.99784406290213L255.10108888888885,121.78180160524148L256.6565833333333,121.58036622727538L258.2120777777778,121.51348147670498L259.7675722222222,121.82039227585621L261.32306666666665,121.4395837081282L262.8785611111111,121.27363549683261L264.4340555555555,121.71743026895234" style="fill: none;" fill="none"></path></g></g></g></g><g opacity="0.2"><g><g><g><path stroke="rgb(238, 51, 119)" stroke-width="2px" d="M32.66538333333333,-20.947880506515503L34.22087777777777,25.53007524354117L35.776372222222214,35.26643879073007L37.33186666666666,37.97785774299076L38.88736111111111,44.36825571741376L40.442855555555546,45.954955714089536L41.998349999999995,48.20502262456076L43.553844444444444,55.85044850621905L45.109338888888885,55.8794355222157L46.66483333333333,59.97225061484745L48.220327777777776,65.06826654502323L49.77582222222222,67.8633120911462L51.33131666666666,68.56384301185608L52.88681111111111,72.0977202313287L54.44230555555555,77.15776952675411L55.9978,76.0344980273928L57.55329444444444,78.6482629435403L59.10878888888888,80.68930505003247L60.66428333333333,84.52285875592914L62.21977777777777,82.81226105349404L63.77527222222221,85.91544805254254L65.33076666666666,86.5654695715223L66.88626111111111,86.38969079085759L68.44175555555555,89.02725916249412L69.99725,90.21940987450736L71.55274444444443,91.1763754742486L73.10823888888889,93.09509237323489L74.66373333333333,93.35719562428338L76.21922777777776,93.51787463256292L77.77472222222222,96.96840565545219L79.33021666666666,95.54039536203656L80.88571111111109,97.921332018716L82.44120555555556,95.89073281628745L83.99669999999999,97.5650493843215L85.55219444444444,97.92828890255518L87.10768888888889,100.13375748906817L88.66318333333332,98.67671470982688L90.21867777777777,100.88041755131312L91.77417222222222,99.98999325718198L93.32966666666665,102.85219774075918L94.8851611111111,102.29147896596365L96.44065555555555,102.66859814950399L97.99614999999999,103.08143767288752L99.55164444444443,102.34271209580558L101.10713888888888,103.5584237575531L102.66263333333332,103.32752417666572L104.21812777777777,104.53586214780807L105.77362222222222,106.06341347524099L107.32911666666666,105.87763512134552L108.8846111111111,106.15319365262985L110.44010555555555,106.78485293899264L111.9956,105.63089688335147L113.55109444444443,105.76107321466718L115.10658888888888,105.6515667097909L116.66208333333333,107.30269745418005L118.21757777777776,107.35285446473532L119.77307222222221,106.4485239812306L121.32856666666666,108.10049212830407L122.8840611111111,108.44817338671002L124.43955555555554,110.17144959313529L125.99504999999999,109.88461833340781L127.55054444444443,109.38905782358987L129.1060388888889,108.39005915607724L130.66153333333332,110.38440374817166L132.21702777777776,108.01922996555056L133.77252222222222,108.47894509349551L135.32801666666666,111.91408836841583L136.8835111111111,111.96665149075645L138.43900555555555,110.32850617170334L139.9945,111.64214847769055L141.54999444444442,110.809755052839L143.10548888888886,110.25746335302081L144.66098333333335,111.29798355272837L146.21647777777778,111.58147656917572L147.77197222222222,112.20415177515574L149.32746666666665,110.76573646920068L150.8829611111111,111.91399363960538L152.43845555555552,113.93921224560056L153.99395,112.80783953836985L155.54944444444445,113.35256051165717L157.10493888888888,113.16903670345035L158.66043333333332,113.20174087796893L160.21592777777775,114.27119883469172L161.77142222222218,113.59938590015683L163.32691666666668,114.79987274748939L164.8824111111111,114.2493051120213L166.43790555555555,113.1305730172566L167.99339999999998,113.29656062807355L169.54889444444441,115.20409573827472L171.10438888888888,114.78925554241452L172.65988333333334,114.02381265163422L174.21537777777777,114.6025715810912L175.7708722222222,115.10613478081565L177.32636666666664,115.01422131061554L178.88186111111108,114.4079607129097L180.43735555555554,115.38466400759559L181.99285,115.05941832065582L183.54834444444444,116.5589678117207L185.10383888888887,116.19124951532908L186.6593333333333,115.01009492363248L188.21482777777777,116.02449649572372L189.7703222222222,116.4907744356564L191.32581666666667,116.17742289815631L192.8813111111111,117.01641702651978L194.43680555555554,117.27466292040687L195.99229999999997,116.94484751565116L197.54779444444443,118.49697528566632L199.10328888888887,117.46069514751434L200.65878333333333,117.06013247796467L202.21427777777777,118.42897515637534L203.7697722222222,118.15960052183695L205.32526666666664,118.38029591526303L206.8807611111111,118.43222624914985L208.43625555555553,116.94749234403882L209.99174999999997,118.14515627282005L211.54724444444443,118.1874621595655L213.10273888888887,119.13879328966141L214.65823333333333,118.60318522793906" style="fill: none;" fill="none"></path></g><g><path stroke="rgb(0, 153, 136)" stroke-width="2px" d="M188.21482777777777,116.4378551329885L189.7703222222222,116.75559071983609L191.32581666666667,116.83290079661778L192.8813111111111,116.94964079345975L194.43680555555554,117.17726654665809L195.99229999999997,117.87225772653308L197.54779444444443,116.83107821430478L199.10328888888887,117.76749145133155L200.65878333333333,116.48868282352176L202.21427777777777,115.95666687829154L203.7697722222222,118.01775360107422L205.32526666666664,118.10183489322662L206.8807611111111,119.4633000918797L208.43625555555553,118.05461068664279L209.99174999999997,118.2809594954763L211.54724444444443,119.1627407329423L213.10273888888887,118.32184066091266L214.65823333333333,118.2164756996291L216.21372777777776,118.7644591331482L217.7692222222222,118.18149045535496L219.32471666666663,120.74141909394946L220.8802111111111,118.5515049781118L222.43570555555553,118.21108373573847L223.9912,120.15514248609543L225.54669444444443,118.25098351069859L227.10218888888886,120.08460741383689L228.6576833333333,118.82157681669507L230.21317777777776,120.14319149936948L231.7686722222222,119.83762667008808L233.32416666666666,121.82076863305907L234.8796611111111,119.35253179924827L236.43515555555553,119.53922712802887L237.99064999999996,120.63413303239005L239.54614444444442,119.84285191127232L241.10163888888889,120.34586947304862L242.65713333333332,120.35641468422752L244.21262777777775,121.36680164933205L245.7681222222222,120.84264440621648L247.32361666666662,121.70900379334178L248.8791111111111,121.96511260526519L250.43460555555555,120.3151735493115L251.99009999999998,121.41221653563636L253.54559444444442,120.74190410545893L255.10108888888885,122.95773791841097L256.6565833333333,121.2782131603786L258.2120777777778,121.41315435085978L259.7675722222222,122.28075847455433L261.32306666666665,120.86837085655756L262.8785611111111,121.02471317989486L264.4340555555555,122.38312242712293" style="fill: none;" fill="none"></path></g></g></g></g></g></g><g transform="translate(50, 178)" clip-path="url(#clip_1)"><clipPath id="clip_1"><rect width="279" height="21"></rect></clipPath><g><g><line x1="0" y1="0" x2="0" y2="5" style="visibility: inherit;" fill="rgb(0, 0, 0)" stroke="rgb(204, 204, 204)" stroke-width="1px"></line><line x1="31.109888888888886" y1="0" x2="31.109888888888886" y2="5" style="visibility: inherit;" fill="rgb(0, 0, 0)" stroke="rgb(204, 204, 204)" stroke-width="1px"></line><line x1="62.21977777777777" y1="0" x2="62.21977777777777" y2="5" style="visibility: inherit;" fill="rgb(0, 0, 0)" stroke="rgb(204, 204, 204)" stroke-width="1px"></line><line x1="93.32966666666665" y1="0" x2="93.32966666666665" y2="5" style="visibility: inherit;" fill="rgb(0, 0, 0)" stroke="rgb(204, 204, 204)" stroke-width="1px"></line><line x1="124.43955555555554" y1="0" x2="124.43955555555554" y2="5" style="visibility: inherit;" fill="rgb(0, 0, 0)" stroke="rgb(204, 204, 204)" stroke-width="1px"></line><line x1="155.54944444444445" y1="0" x2="155.54944444444445" y2="5" style="visibility: inherit;" fill="rgb(0, 0, 0)" stroke="rgb(204, 204, 204)" stroke-width="1px"></line><line x1="186.6593333333333" y1="0" x2="186.6593333333333" y2="5" style="visibility: inherit;" fill="rgb(0, 0, 0)" stroke="rgb(204, 204, 204)" stroke-width="1px"></line><line x1="217.7692222222222" y1="0" x2="217.7692222222222" y2="5" style="visibility: inherit;" fill="rgb(0, 0, 0)" stroke="rgb(204, 204, 204)" stroke-width="1px"></line><line x1="248.8791111111111" y1="0" x2="248.8791111111111" y2="5" style="visibility: inherit;" fill="rgb(0, 0, 0)" stroke="rgb(204, 204, 204)" stroke-width="1px"></line><line x1="279.989" y1="0" x2="279.989" y2="5" style="visibility: inherit;" fill="rgb(0, 0, 0)" stroke="rgb(204, 204, 204)" stroke-width="1px"></line></g><g transform="translate(0, 8)"><text x="0" y="0" dx="0em" dy="0.95em" style="text-anchor: middle; visibility: hidden; font-family: Roboto, sans-serif; font-size: 12px; font-weight: 200;" fill="rgb(50, 49, 63)" stroke="none" stroke-width="1px">-20</text><text x="31.109888888888886" y="0" dx="0em" dy="0.95em" style="text-anchor: middle; visibility: inherit; font-family: Roboto, sans-serif; font-size: 12px; font-weight: 200;" fill="rgb(50, 49, 63)" stroke="none" stroke-width="1px">0</text><text x="62.21977777777777" y="0" dx="0em" dy="0.95em" style="text-anchor: middle; visibility: inherit; font-family: Roboto, sans-serif; font-size: 12px; font-weight: 200;" fill="rgb(50, 49, 63)" stroke="none" stroke-width="1px">20</text><text x="93.32966666666665" y="0" dx="0em" dy="0.95em" style="text-anchor: middle; visibility: inherit; font-family: Roboto, sans-serif; font-size: 12px; font-weight: 200;" fill="rgb(50, 49, 63)" stroke="none" stroke-width="1px">40</text><text x="124.43955555555554" y="0" dx="0em" dy="0.95em" style="text-anchor: middle; visibility: inherit; font-family: Roboto, sans-serif; font-size: 12px; font-weight: 200;" fill="rgb(50, 49, 63)" stroke="none" stroke-width="1px">60</text><text x="155.54944444444445" y="0" dx="0em" dy="0.95em" style="text-anchor: middle; visibility: inherit; font-family: Roboto, sans-serif; font-size: 12px; font-weight: 200;" fill="rgb(50, 49, 63)" stroke="none" stroke-width="1px">80</text><text x="186.6593333333333" y="0" dx="0em" dy="0.95em" style="text-anchor: middle; visibility: inherit; font-family: Roboto, sans-serif; font-size: 12px; font-weight: 200;" fill="rgb(50, 49, 63)" stroke="none" stroke-width="1px">100</text><text x="217.7692222222222" y="0" dx="0em" dy="0.95em" style="text-anchor: middle; visibility: inherit; font-family: Roboto, sans-serif; font-size: 12px; font-weight: 200;" fill="rgb(50, 49, 63)" stroke="none" stroke-width="1px">120</text><text x="248.8791111111111" y="0" dx="0em" dy="0.95em" style="text-anchor: middle; visibility: inherit; font-family: Roboto, sans-serif; font-size: 12px; font-weight: 200;" fill="rgb(50, 49, 63)" stroke="none" stroke-width="1px">140</text><text x="279.989" y="0" dx="0em" dy="0.95em" style="text-anchor: middle; visibility: hidden; font-family: Roboto, sans-serif; font-size: 12px; font-weight: 200;" fill="rgb(50, 49, 63)" stroke="none" stroke-width="1px">160</text></g><line x1="0" y1="0" x2="279.989" y2="0" fill="rgb(0, 0, 0)" stroke="rgb(204, 204, 204)" stroke-width="1px"></line></g></g></g></g></svg>