<svg viewBox="0 0 329.98907470703125 200" xmlns="http://www.w3.org/2000/svg"><g><g><g><g><g><line x1="50" y1="178" x2="45" y2="178" style="visibility: inherit;" fill="rgb(0, 0, 0)" stroke="rgb(204, 204, 204)" stroke-width="1px"></line><line x1="50" y1="163.16666666666669" x2="45" y2="163.16666666666669" style="visibility: inherit;" fill="rgb(0, 0, 0)" stroke="rgb(204, 204, 204)" stroke-width="1px"></line><line x1="50" y1="148.33333333333334" x2="45" y2="148.33333333333334" style="visibility: inherit;" fill="rgb(0, 0, 0)" stroke="rgb(204, 204, 204)" stroke-width="1px"></line><line x1="50" y1="133.5" x2="45" y2="133.5" style="visibility: inherit;" fill="rgb(0, 0, 0)" stroke="rgb(204, 204, 204)" stroke-width="1px"></line><line x1="50" y1="118.66666666666669" x2="45" y2="118.66666666666669" style="visibility: inherit;" fill="rgb(0, 0, 0)" stroke="rgb(204, 204, 204)" stroke-width="1px"></line><line x1="50" y1="103.83333333333331" x2="45" y2="103.83333333333331" style="visibility: inherit;" fill="rgb(0, 0, 0)" stroke="rgb(204, 204, 204)" stroke-width="1px"></line><line x1="50" y1="89.00000000000001" x2="45" y2="89.00000000000001" style="visibility: inherit;" fill="rgb(0, 0, 0)" stroke="rgb(204, 204, 204)" stroke-width="1px"></line><line x1="50" y1="74.16666666666666" x2="45" y2="74.16666666666666" style="visibility: inherit;" fill="rgb(0, 0, 0)" stroke="rgb(204, 204, 204)" stroke-width="1px"></line><line x1="50" y1="59.33333333333332" x2="45" y2="59.33333333333332" style="visibility: inherit;" fill="rgb(0, 0, 0)" stroke="rgb(204, 204, 204)" stroke-width="1px"></line><line x1="50" y1="44.5" x2="45" y2="44.5" style="visibility: inherit;" fill="rgb(0, 0, 0)" stroke="rgb(204, 204, 204)" stroke-width="1px"></line><line x1="50" y1="29.66666666666666" x2="45" y2="29.66666666666666" style="visibility: inherit;" fill="rgb(0, 0, 0)" stroke="rgb(204, 204, 204)" stroke-width="1px"></line><line x1="50" y1="14.83333333333334" x2="45" y2="14.83333333333334" style="visibility: inherit;" fill="rgb(0, 0, 0)" stroke="rgb(204, 204, 204)" stroke-width="1px"></line><line x1="50" y1="0" x2="45" y2="0" style="visibility: inherit;" fill="rgb(0, 0, 0)" stroke="rgb(204, 204, 204)" stroke-width="1px"></line></g><g transform="translate(40, 0)"><text x="0" y="178" dx="0em" dy="0.3em" style="text-anchor: end; visibility: hidden; font-family: Roboto, sans-serif; font-size: 12px; font-weight: 200;" fill="rgb(50, 49, 63)" stroke="none" stroke-width="1px">0.4</text><text x="0" y="163.16666666666669" dx="0em" dy="0.3em" style="text-anchor: end; visibility: inherit; font-family: Roboto, sans-serif; font-size: 12px; font-weight: 200;" fill="rgb(50, 49, 63)" stroke="none" stroke-width="1px">0.45</text><text x="0" y="148.33333333333334" dx="0em" dy="0.3em" style="text-anchor: end; visibility: hidden; font-family: Roboto, sans-serif; font-size: 12px; font-weight: 200;" fill="rgb(50, 49, 63)" stroke="none" stroke-width="1px">0.5</text><text x="0" y="133.5" dx="0em" dy="0.3em" style="text-anchor: end; visibility: inherit; font-family: Roboto, sans-serif; font-size: 12px; font-weight: 200;" fill="rgb(50, 49, 63)" stroke="none" stroke-width="1px">0.55</text><text x="0" y="118.66666666666669" dx="0em" dy="0.3em" style="text-anchor: end; visibility: hidden; font-family: Roboto, sans-serif; font-size: 12px; font-weight: 200;" fill="rgb(50, 49, 63)" stroke="none" stroke-width="1px">0.6</text><text x="0" y="103.83333333333331" dx="0em" dy="0.3em" style="text-anchor: end; visibility: inherit; font-family: Roboto, sans-serif; font-size: 12px; font-weight: 200;" fill="rgb(50, 49, 63)" stroke="none" stroke-width="1px">0.65</text><text x="0" y="89.00000000000001" dx="0em" dy="0.3em" style="text-anchor: end; visibility: hidden; font-family: Roboto, sans-serif; font-size: 12px; font-weight: 200;" fill="rgb(50, 49, 63)" stroke="none" stroke-width="1px">0.7</text><text x="0" y="74.16666666666666" dx="0em" dy="0.3em" style="text-anchor: end; visibility: inherit; font-family: Roboto, sans-serif; font-size: 12px; font-weight: 200;" fill="rgb(50, 49, 63)" stroke="none" stroke-width="1px">0.75</text><text x="0" y="59.33333333333332" dx="0em" dy="0.3em" style="text-anchor: end; visibility: hidden; font-family: Roboto, sans-serif; font-size: 12px; font-weight: 200;" fill="rgb(50, 49, 63)" stroke="none" stroke-width="1px">0.8</text><text x="0" y="44.5" dx="0em" dy="0.3em" style="text-anchor: end; visibility: inherit; font-family: Roboto, sans-serif; font-size: 12px; font-weight: 200;" fill="rgb(50, 49, 63)" stroke="none" stroke-width="1px">0.85</text><text x="0" y="29.66666666666666" dx="0em" dy="0.3em" style="text-anchor: end; visibility: hidden; font-family: Roboto, sans-serif; font-size: 12px; font-weight: 200;" fill="rgb(50, 49, 63)" stroke="none" stroke-width="1px">0.9</text><text x="0" y="14.83333333333334" dx="0em" dy="0.3em" style="text-anchor: end; visibility: inherit; font-family: Roboto, sans-serif; font-size: 12px; font-weight: 200;" fill="rgb(50, 49, 63)" stroke="none" stroke-width="1px">0.95</text><text x="0" y="0" dx="0em" dy="0.3em" style="text-anchor: end; visibility: hidden; font-family: Roboto, sans-serif; font-size: 12px; font-weight: 200;" fill="rgb(50, 49, 63)" stroke="none" stroke-width="1px">1</text></g><line x1="50" y1="0" x2="50" y2="178" fill="rgb(0, 0, 0)" stroke="rgb(204, 204, 204)" stroke-width="1px"></line></g></g><g transform="translate(50, 0)" clip-path="url(#clip_0)"><clipPath id="clip_0"><rect width="279" height="177"></rect></clipPath><g><g><g><line x1="0" y1="0" x2="0" y2="178" fill="rgb(0, 0, 0)" stroke="rgb(60, 60, 60)" stroke-width="1px" opacity="0.25"></line><line x1="31.109888888888886" y1="0" x2="31.109888888888886" y2="178" fill="rgb(0, 0, 0)" stroke="rgb(60, 60, 60)" stroke-width="1px" opacity="0.25"></line><line x1="62.21977777777777" y1="0" x2="62.21977777777777" y2="178" fill="rgb(0, 0, 0)" stroke="rgb(60, 60, 60)" stroke-width="1px" opacity="0.25"></line><line x1="93.32966666666665" y1="0" x2="93.32966666666665" y2="178" fill="rgb(0, 0, 0)" stroke="rgb(60, 60, 60)" stroke-width="1px" opacity="0.25"></line><line x1="124.43955555555554" y1="0" x2="124.43955555555554" y2="178" fill="rgb(0, 0, 0)" stroke="rgb(60, 60, 60)" stroke-width="1px" opacity="0.25"></line><line x1="155.54944444444445" y1="0" x2="155.54944444444445" y2="178" fill="rgb(0, 0, 0)" stroke="rgb(60, 60, 60)" stroke-width="1px" opacity="0.25"></line><line x1="186.6593333333333" y1="0" x2="186.6593333333333" y2="178" fill="rgb(0, 0, 0)" stroke="rgb(60, 60, 60)" stroke-width="1px" opacity="0.25"></line><line x1="217.7692222222222" y1="0" x2="217.7692222222222" y2="178" fill="rgb(0, 0, 0)" stroke="rgb(60, 60, 60)" stroke-width="1px" opacity="0.25"></line><line x1="248.8791111111111" y1="0" x2="248.8791111111111" y2="178" fill="rgb(0, 0, 0)" stroke="rgb(60, 60, 60)" stroke-width="1px" opacity="0.25"></line><line x1="279.989" y1="0" x2="279.989" y2="178" fill="rgb(0, 0, 0)" stroke="rgb(60, 60, 60)" stroke-width="1px" opacity="0.25"></line></g><g><line x1="0" y1="178" x2="279.989" y2="178" fill="rgb(0, 0, 0)" stroke="rgb(60, 60, 60)" stroke-width="1px" opacity="0.25"></line><line x1="0" y1="163.16666666666669" x2="279.989" y2="163.16666666666669" fill="rgb(0, 0, 0)" stroke="rgb(60, 60, 60)" stroke-width="1px" opacity="0.25"></line><line x1="0" y1="148.33333333333334" x2="279.989" y2="148.33333333333334" fill="rgb(0, 0, 0)" stroke="rgb(60, 60, 60)" stroke-width="1px" opacity="0.25"></line><line x1="0" y1="133.5" x2="279.989" y2="133.5" fill="rgb(0, 0, 0)" stroke="rgb(60, 60, 60)" stroke-width="1px" opacity="0.25"></line><line x1="0" y1="118.66666666666669" x2="279.989" y2="118.66666666666669" fill="rgb(0, 0, 0)" stroke="rgb(60, 60, 60)" stroke-width="1px" opacity="0.25"></line><line x1="0" y1="103.83333333333331" x2="279.989" y2="103.83333333333331" fill="rgb(0, 0, 0)" stroke="rgb(60, 60, 60)" stroke-width="1px" opacity="0.25"></line><line x1="0" y1="89.00000000000001" x2="279.989" y2="89.00000000000001" fill="rgb(0, 0, 0)" stroke="rgb(60, 60, 60)" stroke-width="1px" opacity="0.25"></line><line x1="0" y1="74.16666666666666" x2="279.989" y2="74.16666666666666" fill="rgb(0, 0, 0)" stroke="rgb(60, 60, 60)" stroke-width="1px" opacity="0.25"></line><line x1="0" y1="59.33333333333332" x2="279.989" y2="59.33333333333332" fill="rgb(0, 0, 0)" stroke="rgb(60, 60, 60)" stroke-width="1px" opacity="0.25"></line><line x1="0" y1="44.5" x2="279.989" y2="44.5" fill="rgb(0, 0, 0)" stroke="rgb(60, 60, 60)" stroke-width="1px" opacity="0.25"></line><line x1="0" y1="29.66666666666666" x2="279.989" y2="29.66666666666666" fill="rgb(0, 0, 0)" stroke="rgb(60, 60, 60)" stroke-width="1px" opacity="0.25"></line><line x1="0" y1="14.83333333333334" x2="279.989" y2="14.83333333333334" fill="rgb(0, 0, 0)" stroke="rgb(60, 60, 60)" stroke-width="1px" opacity="0.25"></line><line x1="0" y1="0" x2="279.989" y2="0" fill="rgb(0, 0, 0)" stroke="rgb(60, 60, 60)" stroke-width="1px" opacity="0.25"></line></g></g></g><g><g><line x1="0" y1="296.6666666666667" x2="279.989" y2="296.6666666666667" fill="rgb(0, 0, 0)" stroke="rgb(153, 153, 153)" stroke-width="1.5px"></line></g></g><g><g><line x1="31.109888888888886" y1="0" x2="31.109888888888886" y2="178" fill="rgb(0, 0, 0)" stroke="rgb(153, 153, 153)" stroke-width="1.5px"></line></g></g><g><g><g><g><g><path stroke="rgb(255, 112, 67)" stroke-width="2px" d="M37.33186666666666,-14.363332122875011L38.88736111111111,3.0014294143155555L40.442855555555546,14.657807863994712L41.998349999999995,25.655366561243873L43.553844444444444,33.94178309938193L45.109338888888885,39.32637154498067L46.66483333333333,45.821042518754446L48.220327777777776,51.59670815905165L49.77582222222222,54.96040016080502L51.33131666666666,59.46650214822733L52.88681111111111,63.279293292843185L54.44230555555555,67.31987219891322L55.9978,69.16492102658242L57.55329444444444,71.89581738013399L59.10878888888888,74.3176272761711L60.66428333333333,76.24919499069756L62.21977777777777,81.19111098916942L63.77527222222221,82.55767267261636L65.33076666666666,85.40813455991258L66.88626111111111,87.32044421447846L68.44175555555555,88.31258955514664L69.99725,90.892169637534L71.55274444444443,90.66865319425263L73.10823888888889,93.24409900525484L74.66373333333333,96.34762128862394L76.21922777777776,98.52900205642342L77.77472222222222,97.86210178753808L79.33021666666666,99.28891470388733L80.88571111111109,101.51403324992253L82.44120555555556,101.60774536376194L83.99669999999999,104.04657948918077L85.55219444444444,106.13106266598565L87.10768888888889,106.06916951488661L88.66318333333332,107.29272715171565L90.21867777777777,106.93955893331238L91.77417222222222,106.08087993471634L93.32966666666665,109.72250400818281L94.8851611111111,110.54168224544168L96.44065555555555,111.84710004746584L97.99614999999999,111.68073970681392L99.55164444444443,114.03257214889415L101.10713888888888,115.63709805701107L102.66263333333332,115.30654431256832L104.21812777777777,115.64738850660233L105.77362222222222,117.48305923387797L107.32911666666666,116.31872193476205L108.8846111111111,117.47612407007179L110.44010555555555,118.18498756037292L111.9956,118.7020133522109L113.55109444444443,118.94987378975831L115.10658888888888,120.49162493022766L116.66208333333333,120.8364524181874L118.21757777777776,121.24698211126943L119.77307222222221,120.96584305636765L121.32856666666666,122.14206116704909L122.8840611111111,121.1025589064596L124.43955555555554,123.26627258575978L125.99504999999999,121.28772590960183L127.55054444444443,123.50937222616521L129.1060388888889,125.48744595641884L130.66153333333332,125.90971708929919L132.21702777777776,125.95478432297799L133.77252222222222,125.63273709524063L135.32801666666666,127.33755853401493L136.8835111111111,127.32046458696728L138.43900555555555,127.93555513105629L139.9945,127.5382816512203L141.54999444444442,127.48843435212223L143.10548888888886,129.71802973911446L144.66098333333335,130.32126466690275L146.21647777777778,129.411860361032L147.77197222222222,130.2507711469889L149.32746666666665,131.53347483938856L150.8829611111111,131.92055646341498L152.43845555555552,132.52968433424326L153.99395,132.36314575302234L155.54944444444445,133.86820654254177L157.10493888888888,132.81326412291554L158.66043333333332,132.70834153109925L160.21592777777775,133.28257629668315L161.77142222222218,133.0782575793957L163.32691666666668,134.00733013299848L164.8824111111111,134.2319812621217L166.43790555555555,134.7140115558593L167.99339999999998,135.69104897904742L169.54889444444441,135.53914391998177L171.10438888888888,135.3886030389175L172.65988333333334,136.80315311167095L174.21537777777777,135.95310404024525L175.7708722222222,137.87051028168725L177.32636666666664,138.88940425040622L178.88186111111108,138.9651961241584L180.43735555555554,139.05327076289865L181.99285,139.05119067216305L183.54834444444444,139.40875706570327L185.10383888888887,138.80167640816813L186.6593333333333,140.4984431786614L188.21482777777777,139.98761291031914L189.7703222222222,140.06189160175265L191.32581666666667,139.82274956954996L192.8813111111111,139.9527556086514L194.43680555555554,139.52907673129798L195.99229999999997,139.26546476627834L197.54779444444443,141.3560974916196L199.10328888888887,141.85764042503303L200.65878333333333,142.41969198340738L202.21427777777777,144.12635416398786L203.7697722222222,143.15142570875813L205.32526666666664,143.28707787395308L206.8807611111111,143.21440374174935L208.43625555555553,144.04907812749684L209.99174999999997,144.2972468079261L211.54724444444443,142.68250536419356L213.10273888888887,142.93139656676615L214.65823333333333,144.61947042269642L216.21372777777776,145.85032381794898L217.7692222222222,144.72259853726146L219.32471666666663,145.1080854990888L220.8802111111111,145.50176000984933L222.43570555555553,146.3475215260094L223.9912,146.6479317102994L225.54669444444443,148.74219273005212L227.10218888888886,147.33760484731417L228.6576833333333,147.23538883443047L230.21317777777776,146.61675912519345L231.7686722222222,148.15781118207727L233.32416666666666,148.30510625402724L234.8796611111111,148.23208199453796L236.43515555555553,149.3078531541727L237.99064999999996,149.0587085333744L239.54614444444442,149.0028759740571L241.10163888888889,148.20436791593696L242.65713333333332,150.42614649059578L244.21262777777775,148.5117223725834L245.7681222222222,148.23426179837298L247.32361666666662,149.69838475037182L248.8791111111111,149.14281965128723L250.43460555555555,151.24439699913557L251.99009999999998,151.37689147234693L253.54559444444442,151.6473168835732L255.10108888888885,151.96566438155483L256.6565833333333,152.03739824970586L258.2120777777778,152.39511830033507L259.7675722222222,153.14548613970805L261.32306666666665,151.71189783249028L262.8785611111111,153.84392170022076L264.4340555555555,153.93992876061372" style="fill: none;" fill="none"></path></g></g></g></g><g opacity="0.2"><g><g><g><path stroke="rgb(255, 112, 67)" stroke-width="2px" d="M37.33186666666666,-4.9033097426096734L38.88736111111111,9.811340769131984L40.442855555555546,19.250230590502415L41.998349999999995,29.99387462933859L43.553844444444444,37.21195737520853L45.109338888888885,41.451581915219634L46.66483333333333,48.38446021080017L48.220327777777776,53.87635668118796L49.77582222222222,56.28804862499237L51.33131666666666,61.24506076176962L52.88681111111111,64.78420237700144L54.44230555555555,68.91468922297159L55.9978,69.89316205183664L57.55329444444444,72.97370254993439L59.10878888888888,75.27351597944894L60.66428333333333,77.01158503691354L62.21977777777777,83.14168592294058L63.77527222222221,83.09705475966135L65.33076666666666,86.53321226437888L66.88626111111111,88.07523310184479L68.44175555555555,88.70418945948282L69.99725,91.91033025582632L71.55274444444443,90.58043122291565L73.10823888888889,94.2606278260549L74.66373333333333,97.57258196671805L76.21922777777776,99.38999334971112L77.77472222222222,97.59887615839642L79.33021666666666,99.85207796096802L80.88571111111109,102.39228785037994L82.44120555555556,101.64473354816437L83.99669999999999,105.00918765862784L85.55219444444444,106.95380846659344L87.10768888888889,106.0447402795156L88.66318333333332,107.7756655216217L90.21867777777777,106.80016338825226L91.77417222222222,105.74195921421051L93.32966666666665,111.15985353787741L94.8851611111111,110.86501200993857L96.44065555555555,112.36234863599142L97.99614999999999,111.61507725715637L99.55164444444443,114.96084074179333L101.10713888888888,116.27040465672812L102.66263333333332,115.17607470353445L104.21812777777777,115.78191975752515L105.77362222222222,118.20759872595471L107.32911666666666,115.85915784041089L108.8846111111111,117.93295085430145L110.44010555555555,118.46477607885998L111.9956,118.90608350435895L113.55109444444443,119.0477043390274L115.10658888888888,121.10015432039899L116.66208333333333,120.9725558757782L118.21757777777776,121.40901823838553L119.77307222222221,120.85487743218741L121.32856666666666,122.60631461938223L122.8840611111111,120.69226721922558L124.43955555555554,124.12029067675275L125.99504999999999,120.50679326057434L127.55054444444443,124.38625633716583L129.1060388888889,126.2681919336319L130.66153333333332,126.07638756434125L132.21702777777776,125.9725723663966L133.77252222222222,125.50562500953674L135.32801666666666,128.01045179367065L136.8835111111111,127.31371760368347L138.43900555555555,128.17833145459494L139.9945,127.38147775332135L141.54999444444442,127.46875961621603L143.10548888888886,130.59805134932202L144.66098333333335,130.559361577034L146.21647777777778,129.05291835467023L147.77197222222222,130.581889351209L149.32746666666665,132.0397581656774L150.8829611111111,132.0733376344045L152.43845555555552,132.77010718981427L153.99395,132.29741295178732L155.54944444444445,134.46225424607596L157.10493888888888,132.39687820275626L158.66043333333332,132.66692856947583L160.21592777777775,133.50922683874768L161.77142222222218,132.99761295318604L163.32691666666668,134.37403519948325L164.8824111111111,134.32065109411877L166.43790555555555,134.90426898002625L167.99339999999998,136.07668578624725L169.54889444444441,135.47918697198233L171.10438888888888,135.32918453216553L172.65988333333334,137.36147622267407L174.21537777777777,135.61758955319723L175.7708722222222,138.6273107926051L177.32636666666664,139.29156184196472L178.88186111111108,138.9951111872991L180.43735555555554,139.0880338350932L181.99285,139.05036966005963L183.54834444444444,139.54988857110342L185.10383888888887,138.56206158796948L186.6593333333333,141.16815725962323L188.21482777777777,139.78598813215893L189.7703222222222,140.0912094116211L191.32581666666667,139.72836017608643L192.8813111111111,140.00406901041669L194.43680555555554,139.3618506193161L195.99229999999997,139.16141708691916L197.54779444444443,142.1812705198924L199.10328888888887,142.0555994908015L200.65878333333333,142.64153381188711L202.21427777777777,144.79997396469116L203.7697722222222,142.76662131150565L205.32526666666664,143.34061980247498L206.8807611111111,143.1857192516327L208.43625555555553,144.37852422396344L209.99174999999997,144.39519902070364L211.54724444444443,142.04516669114432L213.10273888888887,143.02963395913443L214.65823333333333,145.2857534090678L216.21372777777776,146.3361418247223L217.7692222222222,144.27748521169028L219.32471666666663,145.2602372566859L220.8802111111111,145.65714339415234L222.43570555555553,146.68134371439618L223.9912,146.76650365193686L225.54669444444443,149.5687978466352L227.10218888888886,146.78321381409964L228.6576833333333,147.19504415988922L230.21317777777776,146.3725858926773L231.7686722222222,148.76606464385986L233.32416666666666,148.36324363946915L234.8796611111111,148.2032593091329L236.43515555555553,149.7324601809184L237.99064999999996,148.96037111679715L239.54614444444442,148.98083885510763L241.10163888888889,147.88919667402905L242.65713333333332,151.30308280388516L244.21262777777775,147.75609890619916L245.7681222222222,148.12474807103476L247.32361666666662,150.27627428372702L248.8791111111111,148.92353802919388L250.43460555555555,152.07388987143835L251.99009999999998,151.42918705940247L253.54559444444442,151.75405383110046L255.10108888888885,152.0913161834081L256.6565833333333,152.0657116174698L258.2120777777778,152.53631045420966L259.7675722222222,153.44165643056235L261.32306666666665,151.14606032768887L262.8785611111111,154.6854318181674L264.4340555555555,153.97782276074093" style="fill: none;" fill="none"></path></g></g></g></g></g></g><g transform="translate(50, 178)" clip-path="url(#clip_1)"><clipPath id="clip_1"><rect width="279" height="21"></rect></clipPath><g><g><line x1="0" y1="0" x2="0" y2="5" style="visibility: inherit;" fill="rgb(0, 0, 0)" stroke="rgb(204, 204, 204)" stroke-width="1px"></line><line x1="31.109888888888886" y1="0" x2="31.109888888888886" y2="5" style="visibility: inherit;" fill="rgb(0, 0, 0)" stroke="rgb(204, 204, 204)" stroke-width="1px"></line><line x1="62.21977777777777" y1="0" x2="62.21977777777777" y2="5" style="visibility: inherit;" fill="rgb(0, 0, 0)" stroke="rgb(204, 204, 204)" stroke-width="1px"></line><line x1="93.32966666666665" y1="0" x2="93.32966666666665" y2="5" style="visibility: inherit;" fill="rgb(0, 0, 0)" stroke="rgb(204, 204, 204)" stroke-width="1px"></line><line x1="124.43955555555554" y1="0" x2="124.43955555555554" y2="5" style="visibility: inherit;" fill="rgb(0, 0, 0)" stroke="rgb(204, 204, 204)" stroke-width="1px"></line><line x1="155.54944444444445" y1="0" x2="155.54944444444445" y2="5" style="visibility: inherit;" fill="rgb(0, 0, 0)" stroke="rgb(204, 204, 204)" stroke-width="1px"></line><line x1="186.6593333333333" y1="0" x2="186.6593333333333" y2="5" style="visibility: inherit;" fill="rgb(0, 0, 0)" stroke="rgb(204, 204, 204)" stroke-width="1px"></line><line x1="217.7692222222222" y1="0" x2="217.7692222222222" y2="5" style="visibility: inherit;" fill="rgb(0, 0, 0)" stroke="rgb(204, 204, 204)" stroke-width="1px"></line><line x1="248.8791111111111" y1="0" x2="248.8791111111111" y2="5" style="visibility: inherit;" fill="rgb(0, 0, 0)" stroke="rgb(204, 204, 204)" stroke-width="1px"></line><line x1="279.989" y1="0" x2="279.989" y2="5" style="visibility: inherit;" fill="rgb(0, 0, 0)" stroke="rgb(204, 204, 204)" stroke-width="1px"></line></g><g transform="translate(0, 8)"><text x="0" y="0" dx="0em" dy="0.95em" style="text-anchor: middle; visibility: hidden; font-family: Roboto, sans-serif; font-size: 12px; font-weight: 200;" fill="rgb(50, 49, 63)" stroke="none" stroke-width="1px">-20</text><text x="31.109888888888886" y="0" dx="0em" dy="0.95em" style="text-anchor: middle; visibility: inherit; font-family: Roboto, sans-serif; font-size: 12px; font-weight: 200;" fill="rgb(50, 49, 63)" stroke="none" stroke-width="1px">0</text><text x="62.21977777777777" y="0" dx="0em" dy="0.95em" style="text-anchor: middle; visibility: inherit; font-family: Roboto, sans-serif; font-size: 12px; font-weight: 200;" fill="rgb(50, 49, 63)" stroke="none" stroke-width="1px">20</text><text x="93.32966666666665" y="0" dx="0em" dy="0.95em" style="text-anchor: middle; visibility: inherit; font-family: Roboto, sans-serif; font-size: 12px; font-weight: 200;" fill="rgb(50, 49, 63)" stroke="none" stroke-width="1px">40</text><text x="124.43955555555554" y="0" dx="0em" dy="0.95em" style="text-anchor: middle; visibility: inherit; font-family: Roboto, sans-serif; font-size: 12px; font-weight: 200;" fill="rgb(50, 49, 63)" stroke="none" stroke-width="1px">60</text><text x="155.54944444444445" y="0" dx="0em" dy="0.95em" style="text-anchor: middle; visibility: inherit; font-family: Roboto, sans-serif; font-size: 12px; font-weight: 200;" fill="rgb(50, 49, 63)" stroke="none" stroke-width="1px">80</text><text x="186.6593333333333" y="0" dx="0em" dy="0.95em" style="text-anchor: middle; visibility: inherit; font-family: Roboto, sans-serif; font-size: 12px; font-weight: 200;" fill="rgb(50, 49, 63)" stroke="none" stroke-width="1px">100</text><text x="217.7692222222222" y="0" dx="0em" dy="0.95em" style="text-anchor: middle; visibility: inherit; font-family: Roboto, sans-serif; font-size: 12px; font-weight: 200;" fill="rgb(50, 49, 63)" stroke="none" stroke-width="1px">120</text><text x="248.8791111111111" y="0" dx="0em" dy="0.95em" style="text-anchor: middle; visibility: inherit; font-family: Roboto, sans-serif; font-size: 12px; font-weight: 200;" fill="rgb(50, 49, 63)" stroke="none" stroke-width="1px">140</text><text x="279.989" y="0" dx="0em" dy="0.95em" style="text-anchor: middle; visibility: hidden; font-family: Roboto, sans-serif; font-size: 12px; font-weight: 200;" fill="rgb(50, 49, 63)" stroke="none" stroke-width="1px">160</text></g><line x1="0" y1="0" x2="279.989" y2="0" fill="rgb(0, 0, 0)" stroke="rgb(204, 204, 204)" stroke-width="1px"></line></g></g></g></g></svg>