<svg viewBox="0 0 329.98907470703125 200" xmlns="http://www.w3.org/2000/svg"><g><g><g><g><g><line x1="50" y1="178" x2="45" y2="178" style="visibility: inherit;" fill="rgb(0, 0, 0)" stroke="rgb(204, 204, 204)" stroke-width="1px"></line><line x1="50" y1="161.8181818181818" x2="45" y2="161.8181818181818" style="visibility: inherit;" fill="rgb(0, 0, 0)" stroke="rgb(204, 204, 204)" stroke-width="1px"></line><line x1="50" y1="145.63636363636363" x2="45" y2="145.63636363636363" style="visibility: inherit;" fill="rgb(0, 0, 0)" stroke="rgb(204, 204, 204)" stroke-width="1px"></line><line x1="50" y1="129.45454545454547" x2="45" y2="129.45454545454547" style="visibility: inherit;" fill="rgb(0, 0, 0)" stroke="rgb(204, 204, 204)" stroke-width="1px"></line><line x1="50" y1="113.27272727272725" x2="45" y2="113.27272727272725" style="visibility: inherit;" fill="rgb(0, 0, 0)" stroke="rgb(204, 204, 204)" stroke-width="1px"></line><line x1="50" y1="97.09090909090908" x2="45" y2="97.09090909090908" style="visibility: inherit;" fill="rgb(0, 0, 0)" stroke="rgb(204, 204, 204)" stroke-width="1px"></line><line x1="50" y1="80.90909090909089" x2="45" y2="80.90909090909089" style="visibility: inherit;" fill="rgb(0, 0, 0)" stroke="rgb(204, 204, 204)" stroke-width="1px"></line><line x1="50" y1="64.72727272727275" x2="45" y2="64.72727272727275" style="visibility: inherit;" fill="rgb(0, 0, 0)" stroke="rgb(204, 204, 204)" stroke-width="1px"></line><line x1="50" y1="48.54545454545454" x2="45" y2="48.54545454545454" style="visibility: inherit;" fill="rgb(0, 0, 0)" stroke="rgb(204, 204, 204)" stroke-width="1px"></line><line x1="50" y1="32.36363636363635" x2="45" y2="32.36363636363635" style="visibility: inherit;" fill="rgb(0, 0, 0)" stroke="rgb(204, 204, 204)" stroke-width="1px"></line><line x1="50" y1="16.181818181818187" x2="45" y2="16.181818181818187" style="visibility: inherit;" fill="rgb(0, 0, 0)" stroke="rgb(204, 204, 204)" stroke-width="1px"></line><line x1="50" y1="0" x2="45" y2="0" style="visibility: inherit;" fill="rgb(0, 0, 0)" stroke="rgb(204, 204, 204)" stroke-width="1px"></line></g><g transform="translate(40, 0)"><text x="0" y="178" dx="0em" dy="0.3em" style="text-anchor: end; visibility: hidden; font-family: Roboto, sans-serif; font-size: 12px; font-weight: 200;" fill="rgb(50, 49, 63)" stroke="none" stroke-width="1px">0.35</text><text x="0" y="161.8181818181818" dx="0em" dy="0.3em" style="text-anchor: end; visibility: inherit; font-family: Roboto, sans-serif; font-size: 12px; font-weight: 200;" fill="rgb(50, 49, 63)" stroke="none" stroke-width="1px">0.4</text><text x="0" y="145.63636363636363" dx="0em" dy="0.3em" style="text-anchor: end; visibility: hidden; font-family: Roboto, sans-serif; font-size: 12px; font-weight: 200;" fill="rgb(50, 49, 63)" stroke="none" stroke-width="1px">0.45</text><text x="0" y="129.45454545454547" dx="0em" dy="0.3em" style="text-anchor: end; visibility: inherit; font-family: Roboto, sans-serif; font-size: 12px; font-weight: 200;" fill="rgb(50, 49, 63)" stroke="none" stroke-width="1px">0.5</text><text x="0" y="113.27272727272725" dx="0em" dy="0.3em" style="text-anchor: end; visibility: hidden; font-family: Roboto, sans-serif; font-size: 12px; font-weight: 200;" fill="rgb(50, 49, 63)" stroke="none" stroke-width="1px">0.55</text><text x="0" y="97.09090909090908" dx="0em" dy="0.3em" style="text-anchor: end; visibility: inherit; font-family: Roboto, sans-serif; font-size: 12px; font-weight: 200;" fill="rgb(50, 49, 63)" stroke="none" stroke-width="1px">0.6</text><text x="0" y="80.90909090909089" dx="0em" dy="0.3em" style="text-anchor: end; visibility: hidden; font-family: Roboto, sans-serif; font-size: 12px; font-weight: 200;" fill="rgb(50, 49, 63)" stroke="none" stroke-width="1px">0.65</text><text x="0" y="64.72727272727275" dx="0em" dy="0.3em" style="text-anchor: end; visibility: inherit; font-family: Roboto, sans-serif; font-size: 12px; font-weight: 200;" fill="rgb(50, 49, 63)" stroke="none" stroke-width="1px">0.7</text><text x="0" y="48.54545454545454" dx="0em" dy="0.3em" style="text-anchor: end; visibility: hidden; font-family: Roboto, sans-serif; font-size: 12px; font-weight: 200;" fill="rgb(50, 49, 63)" stroke="none" stroke-width="1px">0.75</text><text x="0" y="32.36363636363635" dx="0em" dy="0.3em" style="text-anchor: end; visibility: inherit; font-family: Roboto, sans-serif; font-size: 12px; font-weight: 200;" fill="rgb(50, 49, 63)" stroke="none" stroke-width="1px">0.8</text><text x="0" y="16.181818181818187" dx="0em" dy="0.3em" style="text-anchor: end; visibility: hidden; font-family: Roboto, sans-serif; font-size: 12px; font-weight: 200;" fill="rgb(50, 49, 63)" stroke="none" stroke-width="1px">0.85</text><text x="0" y="0" dx="0em" dy="0.3em" style="text-anchor: end; visibility: hidden; font-family: Roboto, sans-serif; font-size: 12px; font-weight: 200;" fill="rgb(50, 49, 63)" stroke="none" stroke-width="1px">0.9</text></g><line x1="50" y1="0" x2="50" y2="178" fill="rgb(0, 0, 0)" stroke="rgb(204, 204, 204)" stroke-width="1px"></line></g></g><g transform="translate(50, 0)" clip-path="url(#clip_0)"><clipPath id="clip_0"><rect width="279" height="177"></rect></clipPath><g><g><g><line x1="0" y1="0" x2="0" y2="178" fill="rgb(0, 0, 0)" stroke="rgb(60, 60, 60)" stroke-width="1px" opacity="0.25"></line><line x1="31.109888888888886" y1="0" x2="31.109888888888886" y2="178" fill="rgb(0, 0, 0)" stroke="rgb(60, 60, 60)" stroke-width="1px" opacity="0.25"></line><line x1="62.21977777777777" y1="0" x2="62.21977777777777" y2="178" fill="rgb(0, 0, 0)" stroke="rgb(60, 60, 60)" stroke-width="1px" opacity="0.25"></line><line x1="93.32966666666665" y1="0" x2="93.32966666666665" y2="178" fill="rgb(0, 0, 0)" stroke="rgb(60, 60, 60)" stroke-width="1px" opacity="0.25"></line><line x1="124.43955555555554" y1="0" x2="124.43955555555554" y2="178" fill="rgb(0, 0, 0)" stroke="rgb(60, 60, 60)" stroke-width="1px" opacity="0.25"></line><line x1="155.54944444444445" y1="0" x2="155.54944444444445" y2="178" fill="rgb(0, 0, 0)" stroke="rgb(60, 60, 60)" stroke-width="1px" opacity="0.25"></line><line x1="186.6593333333333" y1="0" x2="186.6593333333333" y2="178" fill="rgb(0, 0, 0)" stroke="rgb(60, 60, 60)" stroke-width="1px" opacity="0.25"></line><line x1="217.7692222222222" y1="0" x2="217.7692222222222" y2="178" fill="rgb(0, 0, 0)" stroke="rgb(60, 60, 60)" stroke-width="1px" opacity="0.25"></line><line x1="248.8791111111111" y1="0" x2="248.8791111111111" y2="178" fill="rgb(0, 0, 0)" stroke="rgb(60, 60, 60)" stroke-width="1px" opacity="0.25"></line><line x1="279.989" y1="0" x2="279.989" y2="178" fill="rgb(0, 0, 0)" stroke="rgb(60, 60, 60)" stroke-width="1px" opacity="0.25"></line></g><g><line x1="0" y1="178" x2="279.989" y2="178" fill="rgb(0, 0, 0)" stroke="rgb(60, 60, 60)" stroke-width="1px" opacity="0.25"></line><line x1="0" y1="161.8181818181818" x2="279.989" y2="161.8181818181818" fill="rgb(0, 0, 0)" stroke="rgb(60, 60, 60)" stroke-width="1px" opacity="0.25"></line><line x1="0" y1="145.63636363636363" x2="279.989" y2="145.63636363636363" fill="rgb(0, 0, 0)" stroke="rgb(60, 60, 60)" stroke-width="1px" opacity="0.25"></line><line x1="0" y1="129.45454545454547" x2="279.989" y2="129.45454545454547" fill="rgb(0, 0, 0)" stroke="rgb(60, 60, 60)" stroke-width="1px" opacity="0.25"></line><line x1="0" y1="113.27272727272725" x2="279.989" y2="113.27272727272725" fill="rgb(0, 0, 0)" stroke="rgb(60, 60, 60)" stroke-width="1px" opacity="0.25"></line><line x1="0" y1="97.09090909090908" x2="279.989" y2="97.09090909090908" fill="rgb(0, 0, 0)" stroke="rgb(60, 60, 60)" stroke-width="1px" opacity="0.25"></line><line x1="0" y1="80.90909090909089" x2="279.989" y2="80.90909090909089" fill="rgb(0, 0, 0)" stroke="rgb(60, 60, 60)" stroke-width="1px" opacity="0.25"></line><line x1="0" y1="64.72727272727275" x2="279.989" y2="64.72727272727275" fill="rgb(0, 0, 0)" stroke="rgb(60, 60, 60)" stroke-width="1px" opacity="0.25"></line><line x1="0" y1="48.54545454545454" x2="279.989" y2="48.54545454545454" fill="rgb(0, 0, 0)" stroke="rgb(60, 60, 60)" stroke-width="1px" opacity="0.25"></line><line x1="0" y1="32.36363636363635" x2="279.989" y2="32.36363636363635" fill="rgb(0, 0, 0)" stroke="rgb(60, 60, 60)" stroke-width="1px" opacity="0.25"></line><line x1="0" y1="16.181818181818187" x2="279.989" y2="16.181818181818187" fill="rgb(0, 0, 0)" stroke="rgb(60, 60, 60)" stroke-width="1px" opacity="0.25"></line><line x1="0" y1="0" x2="279.989" y2="0" fill="rgb(0, 0, 0)" stroke="rgb(60, 60, 60)" stroke-width="1px" opacity="0.25"></line></g></g></g><g><g><line x1="0" y1="291.27272727272725" x2="279.989" y2="291.27272727272725" fill="rgb(0, 0, 0)" stroke="rgb(153, 153, 153)" stroke-width="1.5px"></line></g></g><g><g><line x1="31.109888888888886" y1="0" x2="31.109888888888886" y2="178" fill="rgb(0, 0, 0)" stroke="rgb(153, 153, 153)" stroke-width="1.5px"></line></g></g><g><g><g><g><g><path stroke="rgb(204, 51, 17)" stroke-width="2px" d="M149.32746666666665,121.0489046790383L150.8829611111111,118.43803226405923L152.43845555555552,119.77655650689118L153.99395,120.12234597378237L155.54944444444445,120.90157336832543L157.10493888888888,121.66204736173043L158.66043333333332,121.9155483732301L160.21592777777775,123.16290599768207L161.77142222222218,123.30391718978471L163.32691666666668,124.2843089849144L164.8824111111111,125.2739741562669L166.43790555555555,126.08291246205735L167.99339999999998,125.98981569880064L169.54889444444441,125.58661627991121L171.10438888888888,125.93832940198067L172.65988333333334,126.59474221174425L174.21537777777777,127.14630759552877L175.7708722222222,127.83747257135482L177.32636666666664,129.1663772275997L178.88186111111108,129.7477254581438L180.43735555555554,130.05465235824062L181.99285,130.2328665779992L183.54834444444444,130.70577075170988L185.10383888888887,130.95157837676194L186.6593333333333,130.86629404935508L188.21482777777777,131.66971699903326L189.7703222222222,132.57972795122254L191.32581666666667,132.6856501958206L192.8813111111111,133.602684631308L194.43680555555554,134.43834653807673L195.99229999999997,134.31102471420726L197.54779444444443,135.3884652852015L199.10328888888887,135.70948407876475L200.65878333333333,136.5541745991985L202.21427777777777,136.13959873682273L203.7697722222222,136.7575710049485L205.32526666666664,136.85136594041091L206.8807611111111,137.48742235501334L208.43625555555553,136.95520467899533L209.99174999999997,138.54032137213815L211.54724444444443,138.93006496916158L213.10273888888887,139.84057383266253L214.65823333333333,139.95350483214798L216.21372777777776,140.09436568929954L217.7692222222222,140.30482811846332L219.32471666666663,140.6976618389342L220.8802111111111,140.9258388813093L222.43570555555553,141.1734826038877L223.9912,141.70551618108922L225.54669444444443,142.11388034055102L227.10218888888886,143.14732913685572L228.6576833333333,143.23343326050613L230.21317777777776,143.76959687979982L231.7686722222222,143.2911864452095L233.32416666666666,143.64273169072044L234.8796611111111,144.32509663904133L236.43515555555553,144.04689605195335L237.99064999999996,144.4164794481609L239.54614444444442,145.15158109971046L241.10163888888889,145.74908200187565L242.65713333333332,145.4987712947422L244.21262777777775,145.88949064952044L245.7681222222222,146.0648247122553L247.32361666666662,146.74131304197778L248.8791111111111,147.29032025982357L250.43460555555555,147.64848632419302L251.99009999999998,148.18156288257845L253.54559444444442,149.12673636138857L255.10108888888885,148.68535491470024L256.6565833333333,148.74007643086193L258.2120777777778,148.55130317267898L259.7675722222222,149.2705939916201L261.32306666666665,149.29248256781807L262.8785611111111,149.86299920748053L264.4340555555555,150.93649380389894" style="fill: none;" fill="none"></path></g><g><path stroke="rgb(0, 119, 187)" stroke-width="2px" d="M108.8846111111111,114.98982399160211L110.44010555555555,116.84855826334524L111.9956,115.7966772497032L113.55109444444443,116.49819058705778L115.10658888888888,116.86551075819187L116.66208333333333,117.19744958744629L118.21757777777776,118.89449702925515L119.77307222222221,118.96904329915827L121.32856666666666,118.96774483365158L122.8840611111111,120.5758082796768L124.43955555555554,121.28608336337356L125.99504999999999,121.71760165742856L127.55054444444443,122.93826860000105L129.1060388888889,122.74249618091567L130.66153333333332,124.51403883280157L132.21702777777776,124.94374918767107L133.77252222222222,125.75898723522876L135.32801666666666,126.50076170911801L136.8835111111111,127.86254437381183L138.43900555555555,127.15702761281275L139.9945,128.54889583850616L141.54999444444442,129.23423362767085L143.10548888888886,128.4604956140111L144.66098333333335,129.64629683858666L146.21647777777778,129.73469390296535L147.77197222222222,130.74251128367104" style="fill: none;" fill="none"></path></g><g><path stroke="rgb(255, 112, 67)" stroke-width="2px" d="M40.442855555555546,-9.784143481796129L41.998349999999995,5.3760011056205625L43.553844444444444,17.78430354045808L45.109338888888885,27.113520093474133L46.66483333333333,36.029978414422175L48.220327777777776,43.60963856747323L49.77582222222222,49.33785912873308L51.33131666666666,55.18646366536692L52.88681111111111,60.157053031436405L54.44230555555555,63.64594331743302L55.9978,67.63262256819448L57.55329444444444,71.47333024371274L59.10878888888888,73.5533332662556L60.66428333333333,76.91634821484406L62.21977777777777,79.33256132574378L63.77527222222221,80.75296487332574L65.33076666666666,84.63293661224596L66.88626111111111,86.3130850511343L68.44175555555555,89.6335042242813L69.99725,91.13812582608963L71.55274444444443,92.6987557601204L73.10823888888889,94.8192678854458L74.66373333333333,97.32472180326623L76.21922777777776,100.03377962497954L77.77472222222222,100.86247297111858L79.33021666666666,102.85499828272498L80.88571111111109,103.70264868836391L82.44120555555556,105.06044117188746L83.99669999999999,106.80375605903865L85.55219444444444,108.05951464541944L87.10768888888889,109.38716279014791L88.66318333333332,109.8179934636646L90.21867777777777,110.71723616443468L91.77417222222222,112.00298962854954L93.32966666666665,113.00763744385573L94.8851611111111,113.79306603461472L96.44065555555555,114.20568860403844L97.99614999999999,115.35165447634147L99.55164444444443,114.67944250369268L101.10713888888888,116.67107459679961L102.66263333333332,117.65635361489726L104.21812777777777,118.79971544767876L105.77362222222222,119.76588070670049L107.32911666666666,121.24397219262815L108.8846111111111,121.20338366652868" style="fill: none;" fill="none"></path></g></g></g></g><g opacity="0.2"><g><g><g><path stroke="rgb(204, 51, 17)" stroke-width="2px" d="M149.32746666666665,121.0489046790383L150.8829611111111,116.8715088150718L152.43845555555552,121.06153978000987L153.99395,120.52899438684636L155.54944444444445,121.9189326546409L157.10493888888888,122.71405666524713L158.66043333333332,122.27805887569082L160.21592777777775,124.98156538876621L161.77142222222218,123.51188130812211L163.32691666666668,125.74007654190063L164.8824111111111,126.74949572303079L166.43790555555555,127.29191771420567L167.99339999999998,125.8504745310003L169.54889444444441,124.9826070612127L171.10438888888888,126.4654856595126L172.65988333333334,127.57889847321944L174.21537777777777,127.97342226722022L175.7708722222222,128.87404454838145L177.32636666666664,131.15953176671806L178.88186111111108,130.619694666429L180.43735555555554,130.51502587578514L181.99285,130.50018204342234L183.54834444444444,131.41511767560783L185.10383888888887,131.32028690251437L186.6593333333333,130.73836816440928L188.21482777777777,132.87484799731862L189.7703222222222,133.94474205103788L191.32581666666667,132.8445334001021L192.8813111111111,134.97823543982074L194.43680555555554,135.69183893637225L195.99229999999997,134.1200420206243L197.54779444444443,137.00462592731822L199.10328888888887,136.1910122307864L200.65878333333333,137.82121031934562L202.21427777777777,135.51773496107623L203.7697722222222,137.68452939120206L205.32526666666664,136.99205834215337L206.8807611111111,138.44150697101244L208.43625555555553,136.15687816793266L209.99174999999997,140.91799640655518L211.54724444444443,139.51468036391518L213.10273888888887,141.20633712681857L214.65823333333333,140.12290133129466L216.21372777777776,140.30565697496587L217.7692222222222,140.6205217621543L219.32471666666663,141.28691241957924L220.8802111111111,141.26810444485056L222.43570555555553,141.54494818774137L223.9912,142.5035665468736L225.54669444444443,142.7264265797355L227.10218888888886,144.69750233130023L228.6576833333333,143.36258944598111L230.21317777777776,144.57384230873802L231.7686722222222,142.57357079332525L233.32416666666666,144.1700495589863L234.8796611111111,145.34864406152204L236.43515555555553,143.6295951713215L237.99064999999996,144.97085454247215L239.54614444444442,146.25423357703468L241.10163888888889,146.64533335512334L242.65713333333332,145.12330523404208L244.21262777777775,146.4755696816878L245.7681222222222,146.32782580635765L247.32361666666662,147.75604553656146L248.8791111111111,148.11383108659223L250.43460555555555,148.18573542074725L251.99009999999998,148.98117772015658L253.54559444444442,150.5444965796037L255.10108888888885,148.02328274466774L256.6565833333333,148.82215870510447L258.2120777777778,148.26814328540453L259.7675722222222,150.34953022003174L261.32306666666665,149.32531543211505L262.8785611111111,150.71877416697416L264.4340555555555,152.54673569852653" style="fill: none;" fill="none"></path></g><g><path stroke="rgb(0, 119, 187)" stroke-width="2px" d="M108.8846111111111,114.98982399160211L110.44010555555555,117.96379882639104L111.9956,114.78687147660689L113.55109444444443,117.32317027178676L115.10658888888888,117.34508397362448L116.66208333333333,117.65664048628373L118.21757777777776,121.32130202380092L119.77307222222221,119.07773247632115L121.32856666666666,118.96582984924316L122.8840611111111,122.96359508687799L124.43955555555554,122.34505384618585L125.99504999999999,122.36253079501064L127.55054444444443,124.76528332450174L129.1060388888889,122.44922109083696L130.66153333333332,127.16927042874424L132.21702777777776,125.58801165494053L133.77252222222222,126.98149932514536L135.32801666666666,127.61323508349331L136.8835111111111,129.90501091696999L138.43900555555555,126.09881695834072L139.9945,130.6366218436848L141.54999444444442,130.26221776008606L143.10548888888886,127.2999038696289L144.66098333333335,131.42498462850395L146.21647777777778,129.86728887124494L147.77197222222222,132.25423305684868" style="fill: none;" fill="none"></path></g><g><path stroke="rgb(255, 112, 67)" stroke-width="2px" d="M37.33186666666666,-18.031843879006107L38.88736111111111,4.779104449532251L40.442855555555546,15.191662224856298L41.998349999999995,27.055250427939672L43.553844444444444,35.87572761015459L45.109338888888885,40.87230240214956L46.66483333333333,49.26987986131147L48.220327777777776,54.91038183732466L49.77582222222222,57.899017247286714L51.33131666666666,63.94027376174927L52.88681111111111,67.60319917852229L54.44230555555555,68.87517768686467L55.9978,73.60982972925359L57.55329444444444,77.2327664982189L59.10878888888888,76.67280968752773L60.66428333333333,81.96035831624812L62.21977777777777,82.95666014064442L63.77527222222221,82.88349229639226L65.33076666666666,90.45276654850352L66.88626111111111,88.83327453786677L68.44175555555555,94.61409365047109L69.99725,93.39504753459585L71.55274444444443,95.03969400579278L73.10823888888889,98.00003064762461L74.66373333333333,101.08289883353494L76.21922777777776,104.09736386212437L77.77472222222222,102.1055125323209L79.33021666666666,105.84378558939153L80.88571111111109,104.97412412816827L82.44120555555556,107.09712973507969L83.99669999999999,109.41872826489536L85.55219444444444,109.94315247102217L87.10768888888889,111.37863497300582L88.66318333333332,110.46423946727407L90.21867777777777,112.06610020724209L91.77417222222222,113.93161981756036L93.32966666666665,114.51460916345769L94.8851611111111,114.97120891917837L96.44065555555555,114.82462245767766L97.99614999999999,117.07060328396885L99.55164444444443,113.67112454501064L101.10713888888888,119.65852273594248L102.66263333333332,119.1342721418901L104.21812777777777,120.51475819674404L105.77362222222222,121.21512859517877L107.32911666666666,123.46110942146994L108.8846111111111,121.14250087738037" style="fill: none;" fill="none"></path></g></g></g></g></g></g><g transform="translate(50, 178)" clip-path="url(#clip_1)"><clipPath id="clip_1"><rect width="279" height="21"></rect></clipPath><g><g><line x1="0" y1="0" x2="0" y2="5" style="visibility: inherit;" fill="rgb(0, 0, 0)" stroke="rgb(204, 204, 204)" stroke-width="1px"></line><line x1="31.109888888888886" y1="0" x2="31.109888888888886" y2="5" style="visibility: inherit;" fill="rgb(0, 0, 0)" stroke="rgb(204, 204, 204)" stroke-width="1px"></line><line x1="62.21977777777777" y1="0" x2="62.21977777777777" y2="5" style="visibility: inherit;" fill="rgb(0, 0, 0)" stroke="rgb(204, 204, 204)" stroke-width="1px"></line><line x1="93.32966666666665" y1="0" x2="93.32966666666665" y2="5" style="visibility: inherit;" fill="rgb(0, 0, 0)" stroke="rgb(204, 204, 204)" stroke-width="1px"></line><line x1="124.43955555555554" y1="0" x2="124.43955555555554" y2="5" style="visibility: inherit;" fill="rgb(0, 0, 0)" stroke="rgb(204, 204, 204)" stroke-width="1px"></line><line x1="155.54944444444445" y1="0" x2="155.54944444444445" y2="5" style="visibility: inherit;" fill="rgb(0, 0, 0)" stroke="rgb(204, 204, 204)" stroke-width="1px"></line><line x1="186.6593333333333" y1="0" x2="186.6593333333333" y2="5" style="visibility: inherit;" fill="rgb(0, 0, 0)" stroke="rgb(204, 204, 204)" stroke-width="1px"></line><line x1="217.7692222222222" y1="0" x2="217.7692222222222" y2="5" style="visibility: inherit;" fill="rgb(0, 0, 0)" stroke="rgb(204, 204, 204)" stroke-width="1px"></line><line x1="248.8791111111111" y1="0" x2="248.8791111111111" y2="5" style="visibility: inherit;" fill="rgb(0, 0, 0)" stroke="rgb(204, 204, 204)" stroke-width="1px"></line><line x1="279.989" y1="0" x2="279.989" y2="5" style="visibility: inherit;" fill="rgb(0, 0, 0)" stroke="rgb(204, 204, 204)" stroke-width="1px"></line></g><g transform="translate(0, 8)"><text x="0" y="0" dx="0em" dy="0.95em" style="text-anchor: middle; visibility: hidden; font-family: Roboto, sans-serif; font-size: 12px; font-weight: 200;" fill="rgb(50, 49, 63)" stroke="none" stroke-width="1px">-20</text><text x="31.109888888888886" y="0" dx="0em" dy="0.95em" style="text-anchor: middle; visibility: inherit; font-family: Roboto, sans-serif; font-size: 12px; font-weight: 200;" fill="rgb(50, 49, 63)" stroke="none" stroke-width="1px">0</text><text x="62.21977777777777" y="0" dx="0em" dy="0.95em" style="text-anchor: middle; visibility: inherit; font-family: Roboto, sans-serif; font-size: 12px; font-weight: 200;" fill="rgb(50, 49, 63)" stroke="none" stroke-width="1px">20</text><text x="93.32966666666665" y="0" dx="0em" dy="0.95em" style="text-anchor: middle; visibility: inherit; font-family: Roboto, sans-serif; font-size: 12px; font-weight: 200;" fill="rgb(50, 49, 63)" stroke="none" stroke-width="1px">40</text><text x="124.43955555555554" y="0" dx="0em" dy="0.95em" style="text-anchor: middle; visibility: inherit; font-family: Roboto, sans-serif; font-size: 12px; font-weight: 200;" fill="rgb(50, 49, 63)" stroke="none" stroke-width="1px">60</text><text x="155.54944444444445" y="0" dx="0em" dy="0.95em" style="text-anchor: middle; visibility: inherit; font-family: Roboto, sans-serif; font-size: 12px; font-weight: 200;" fill="rgb(50, 49, 63)" stroke="none" stroke-width="1px">80</text><text x="186.6593333333333" y="0" dx="0em" dy="0.95em" style="text-anchor: middle; visibility: inherit; font-family: Roboto, sans-serif; font-size: 12px; font-weight: 200;" fill="rgb(50, 49, 63)" stroke="none" stroke-width="1px">100</text><text x="217.7692222222222" y="0" dx="0em" dy="0.95em" style="text-anchor: middle; visibility: inherit; font-family: Roboto, sans-serif; font-size: 12px; font-weight: 200;" fill="rgb(50, 49, 63)" stroke="none" stroke-width="1px">120</text><text x="248.8791111111111" y="0" dx="0em" dy="0.95em" style="text-anchor: middle; visibility: inherit; font-family: Roboto, sans-serif; font-size: 12px; font-weight: 200;" fill="rgb(50, 49, 63)" stroke="none" stroke-width="1px">140</text><text x="279.989" y="0" dx="0em" dy="0.95em" style="text-anchor: middle; visibility: hidden; font-family: Roboto, sans-serif; font-size: 12px; font-weight: 200;" fill="rgb(50, 49, 63)" stroke="none" stroke-width="1px">160</text></g><line x1="0" y1="0" x2="279.989" y2="0" fill="rgb(0, 0, 0)" stroke="rgb(204, 204, 204)" stroke-width="1px"></line></g></g></g></g></svg>